<svg width="47" height="15" viewBox="0 0 47 15" fill="none" xmlns="http://www.w3.org/2000/svg">
<path d="M1.95659 8.09375C1.95659 6.38068 3.04963 5.40909 4.53897 5.40909C5.95801 5.40909 6.81454 6.30398 6.81454 7.86364V14H8.32306V7.76136C8.32306 5.23651 6.98074 4.05398 4.97363 4.05398C3.42676 4.05398 2.54466 4.69957 2.08443 5.71591H1.95659V0.909091H0.448065V14H1.95659V8.09375ZM15.0715 14.2045C17.7306 14.2045 19.5203 12.1847 19.5203 9.14205C19.5203 6.07386 17.7306 4.05398 15.0715 4.05398C12.4124 4.05398 10.6226 6.07386 10.6226 9.14205C10.6226 12.1847 12.4124 14.2045 15.0715 14.2045ZM15.0715 12.8494C13.0516 12.8494 12.1311 11.1108 12.1311 9.14205C12.1311 7.1733 13.0516 5.40909 15.0715 5.40909C17.0914 5.40909 18.0118 7.1733 18.0118 9.14205C18.0118 11.1108 17.0914 12.8494 15.0715 12.8494ZM29.4999 4.18182H27.8635L25.1533 12.0057H25.051L22.3408 4.18182H20.7045L24.3351 14H25.8692L29.4999 4.18182ZM35.2559 14.2045C37.2503 14.2045 38.7077 13.2074 39.1679 11.7244L37.7105 11.3153C37.327 12.3381 36.4385 12.8494 35.2559 12.8494C33.4854 12.8494 32.2645 11.7053 32.1942 9.60227H39.3213V8.96307C39.3213 5.30682 37.148 4.05398 35.1025 4.05398C32.4434 4.05398 30.6792 6.15057 30.6792 9.16761C30.6792 12.1847 32.4179 14.2045 35.2559 14.2045ZM32.1942 8.2983C32.2964 6.7706 33.3767 5.40909 35.1025 5.40909C36.7389 5.40909 37.7872 6.63636 37.7872 8.2983H32.1942ZM41.616 14H43.1246V7.78693C43.1246 6.45739 44.1729 5.4858 45.6047 5.4858C46.0074 5.4858 46.4229 5.5625 46.5251 5.58807V4.05398C46.3525 4.04119 45.9562 4.02841 45.7325 4.02841C44.5564 4.02841 43.5336 4.69318 43.1757 5.66477H43.0734V4.18182H41.616V14Z" fill="black"/>
</svg>
